<?xml version="1.0" encoding="utf-8"?>
<!-- Generator: Adobe Illustrator 23.1.0, SVG Export Plug-In . SVG Version: 6.00 Build 0)  -->
<svg version="1.1" id="Capa_1" xmlns="http://www.w3.org/2000/svg" xmlns:xlink="http://www.w3.org/1999/xlink" x="0px" y="0px"
	 viewBox="0 0 512 512" style="enable-background:new 0 0 512 512;" xml:space="preserve">
<style type="text/css">
	.st0{fill:#FFFF00;}
	.st1{fill:#CCCC00;}
	.st2{fill:#00CCFF;}
	.st3{fill:#0099CC;}
</style>
<path class="st0" d="M192.1,226.2c19.2,31.6,52.6,36.4,65.2,36.2L256,512L100,312c-19-25.5-31.3-54.5-36.3-85"/>
<path class="st1" d="M448.3,227c-5,30.5-17.3,59.5-36.3,85L256,512l-1.3-249.6c12.6,0.2,46-4.7,65.2-36.2"/>
<path class="st2" d="M63.7,227c-5-30.5-2.9-62.4,6.9-93.8C88.6,75,136,27.6,194.2,9.6C214.6,3.3,235.6,0,256,0l0.1,113.5
	c-28.7,0-74.5,21.2-74.5,78c0,10.9,4.5,25.3,10.6,34.7"/>
<path class="st3" d="M319.9,226.2c6-9.4,10.6-23.8,10.6-34.7c0-56.8-45.7-78-74.5-78L256.1,0c20.4,0,41.4,3.3,61.8,9.6
	c58.2,18,105.6,65.4,123.6,123.6c9.8,31.4,11.9,63.3,6.9,93.8"/>
</svg>
